<mxfile host="app.diagrams.net" modified="2023-12-12T11:17:31.513Z" agent="Mozilla/5.0 (Windows NT 10.0; Win64; x64) AppleWebKit/537.36 (KHTML, like Gecko) Chrome/120.0.0.0 Safari/537.36 Edg/120.0.0.0" etag="HLiosIxMoB0F9Broxw7L" version="22.1.7" type="device">
  <diagram name="Page-1" id="hTrvmd_nAhQQIOlggOq6">
    <mxGraphModel dx="1265" dy="707" grid="1" gridSize="10" guides="1" tooltips="1" connect="1" arrows="1" fold="1" page="1" pageScale="1" pageWidth="850" pageHeight="1100" math="0" shadow="0">
      <root>
        <mxCell id="0" />
        <mxCell id="1" parent="0" />
        <mxCell id="i-ysmjoaPDRtVPAKWneU-1" value="" style="rounded=0;whiteSpace=wrap;html=1;fillColor=none;" vertex="1" parent="1">
          <mxGeometry x="80" y="160" width="690" height="440" as="geometry" />
        </mxCell>
        <mxCell id="i-ysmjoaPDRtVPAKWneU-2" value="NAV (header)" style="rounded=0;whiteSpace=wrap;html=1;" vertex="1" parent="1">
          <mxGeometry x="80" y="160" width="690" height="50" as="geometry" />
        </mxCell>
        <mxCell id="i-ysmjoaPDRtVPAKWneU-3" value="TITLE (header)" style="rounded=0;whiteSpace=wrap;html=1;" vertex="1" parent="1">
          <mxGeometry x="80" y="210" width="690" height="30" as="geometry" />
        </mxCell>
        <mxCell id="i-ysmjoaPDRtVPAKWneU-4" value="SUBTITLES? (footer)" style="rounded=0;whiteSpace=wrap;html=1;" vertex="1" parent="1">
          <mxGeometry x="80" y="540" width="690" height="60" as="geometry" />
        </mxCell>
        <mxCell id="i-ysmjoaPDRtVPAKWneU-6" value="CASE STUDY (main)" style="rounded=0;whiteSpace=wrap;html=1;" vertex="1" parent="1">
          <mxGeometry x="200" y="240" width="450" height="300" as="geometry" />
        </mxCell>
        <mxCell id="i-ysmjoaPDRtVPAKWneU-7" value="" style="rounded=0;whiteSpace=wrap;html=1;" vertex="1" parent="1">
          <mxGeometry x="80" y="240" width="120" height="300" as="geometry" />
        </mxCell>
        <mxCell id="i-ysmjoaPDRtVPAKWneU-8" value="&lt;br&gt;&lt;br&gt;&lt;br&gt;&lt;br&gt;&lt;br&gt;&lt;br&gt;&lt;br&gt;&lt;br&gt;NEXT SLIDE (right)" style="rounded=0;whiteSpace=wrap;html=1;" vertex="1" parent="1">
          <mxGeometry x="650" y="240" width="120" height="300" as="geometry" />
        </mxCell>
        <mxCell id="i-ysmjoaPDRtVPAKWneU-9" value="&lt;br&gt;&lt;br&gt;" style="triangle;whiteSpace=wrap;html=1;rotation=-180;" vertex="1" parent="1">
          <mxGeometry x="120" y="340" width="40" height="80" as="geometry" />
        </mxCell>
        <mxCell id="i-ysmjoaPDRtVPAKWneU-11" value="" style="triangle;whiteSpace=wrap;html=1;rotation=0;" vertex="1" parent="1">
          <mxGeometry x="690" y="350" width="40" height="80" as="geometry" />
        </mxCell>
      </root>
    </mxGraphModel>
  </diagram>
</mxfile>
